<?xml version="1.0" encoding="UTF-8"?>
<svg width="44px" height="44px" viewBox="0 0 44 44" version="1.1" xmlns="http://www.w3.org/2000/svg" xmlns:xlink="http://www.w3.org/1999/xlink">
    <title>读经/分享@2x</title>
    <g id="小组管理" stroke="none" stroke-width="1" fill="none" fill-rule="evenodd">
        <g id="书籍管理/简介操作" transform="translate(-145, -738)">
            <g id="读经/分享" transform="translate(145, 738)">
                <rect id="矩形" fill-opacity="0" fill="#D8D8D8" x="0" y="0" width="44" height="44"></rect>
                <path d="M22,14 C22.4559585,14 22.7875648,14.4145078 22.7875648,14.8290155 C22.7875648,15.2435233 22.4559585,15.6165803 22,15.6165803 C18.4766839,15.6165803 15.6580311,18.4766839 15.6580311,22 C15.6580311,25.5233161 18.5181347,28.3834197 22.0414508,28.3834197 C25.5647669,28.3834197 28.4248705,25.5233161 28.4248705,22 C28.4248705,21.5854922 28.7564767,21.2124352 29.2124352,21.2124352 C29.626943,21.2124352 30,21.5440415 30,22 C30,26.3937824 26.3937824,30 22,30 C17.6062176,30 14,26.3937824 14,22 C14,17.6062176 17.6062176,14 22,14 Z M24.5159131,15.6964254 L24.611399,15.6994819 L27.2227979,15.9067357 C27.8860104,15.9481865 28.3834197,16.5284974 28.3419689,17.1917098 L28.134715,19.8031088 C28.0932643,20.2176166 27.761658,20.5492228 27.3471503,20.5492228 L27.3056995,20.5492228 C26.8497409,20.507772 26.5181347,20.134715 26.5595855,19.6787565 L26.642487,18.5595855 C24.984456,19.7202073 23.6165803,21.3367876 22.8290156,23.2435233 L22.7046632,23.5336788 C22.5803109,23.865285 22.2487047,24.0310881 21.9585492,24.0310881 C21.8341969,24.0310881 21.7098445,23.9896373 21.626943,23.9481865 C21.2124352,23.7823834 21.0466321,23.3264249 21.2124352,22.9119171 L21.3367876,22.6217617 C22.2072539,20.507772 23.6580311,18.6839378 25.5233161,17.3989637 L24.4870466,17.3160622 C24.0310881,17.2746114 23.6994819,16.9015544 23.7409327,16.4455959 C23.7823834,15.9896373 24.1968912,15.6580311 24.611399,15.6994819 Z" id="形状结合" fill="#FF8800" fill-rule="nonzero"></path>
            </g>
        </g>
    </g>
</svg>