<?xml version="1.0" encoding="UTF-8"?>
<svg width="44px" height="44px" viewBox="0 0 44 44" version="1.1" xmlns="http://www.w3.org/2000/svg" xmlns:xlink="http://www.w3.org/1999/xlink">
    <title>关闭白@2x</title>
    <g id="小组管理" stroke="none" stroke-width="1" fill="none" fill-rule="evenodd">
        <g id="书籍管理/简介操作" transform="translate(-338, -44)">
            <g id="关闭白" transform="translate(338, 44)">
                <rect id="矩形" fill-opacity="0" fill="#D8D8D8" x="0" y="0" width="44" height="44"></rect>
                <path d="M22.0140586,20.3699443 L28.0631906,14.3208123 C28.5116229,13.8877028 29.2244277,13.8938973 29.6652652,14.3347348 C30.1061027,14.7755723 30.1122972,15.4883771 29.6791877,15.9368094 L23.6300557,21.9859414 L29.6791877,28.0350735 C30.1122972,28.4835058 30.1061027,29.1963106 29.6652652,29.6371481 C29.2244277,30.0779856 28.5116229,30.0841801 28.0631906,29.6510706 L22.0140586,23.6019386 L15.9649265,29.6510706 C15.6779849,29.9481638 15.2530672,30.0673137 14.8534911,29.9627249 C14.453915,29.8581361 14.1418639,29.546085 14.0372751,29.1465089 C13.9326863,28.7469328 14.0518362,28.3220151 14.3489294,28.0350735 L20.3980614,21.9859414 L14.3489294,15.9368094 C13.9158199,15.4883771 13.9220144,14.7755723 14.3628519,14.3347348 C14.8036894,13.8938973 15.5164942,13.8877028 15.9649265,14.3208123 L22.0140586,20.3699443 Z" id="路径" fill="#FFFFFF" fill-rule="nonzero"></path>
            </g>
        </g>
    </g>
</svg>