<?xml version="1.0" encoding="UTF-8"?>
<svg width="44px" height="44px" viewBox="0 0 44 44" version="1.1" xmlns="http://www.w3.org/2000/svg" xmlns:xlink="http://www.w3.org/1999/xlink">
    <title>heart@2x</title>
    <g id="小组管理" stroke="none" stroke-width="1" fill="none" fill-rule="evenodd">
        <g id="书籍管理/简介操作" transform="translate(-170, -286)" fill="#FFFFFF">
            <g id="heart" transform="translate(170, 286)">
                <rect id="矩形" fill-opacity="0" x="0" y="0" width="44" height="44"></rect>
                <path d="M31.5161011,16.6887295 C31.2058808,15.9654036 30.7613859,15.3188293 30.1988222,14.7629615 C29.6362584,14.2094195 28.9834066,13.7768195 28.2541573,13.4721388 C27.5017572,13.1581549 26.7053706,13 25.8835182,13 C24.7421851,13 23.628633,13.3139839 22.6609307,13.9070646 C22.429423,14.0489389 22.2094906,14.2047679 22.0011337,14.3745518 C21.7927767,14.2047679 21.5728444,14.0489389 21.3413367,13.9070646 C20.3736344,13.3139839 19.2600822,13 18.1187491,13 C17.2968967,13 16.5005102,13.1581549 15.74811,13.4721388 C15.0211758,13.7744937 14.3660089,14.2094195 13.8034452,14.7629615 C13.2385663,15.3188293 12.7963866,15.9654036 12.4861662,16.6887295 C12.1643705,17.4399651 12,18.2377168 12,19.0587266 C12,19.8332203 12.1574253,20.6402752 12.4699607,21.461285 C12.7315644,22.147398 13.1066069,22.8590949 13.5858279,23.5777692 C14.3451732,24.7150887 15.3892731,25.9012501 16.6857163,27.1036922 C18.834108,29.0969086 20.961664,30.4737862 21.051952,30.5296056 L21.6006253,30.8831282 C21.8437084,31.0389573 22.1562438,31.0389573 22.399327,30.8831282 L22.9480003,30.5296056 C23.0382883,30.4714604 25.1635292,29.0969086 27.3142359,27.1036922 C28.6106792,25.9012501 29.654779,24.7150887 30.4141244,23.5777692 C30.8933453,22.8590949 31.2707029,22.147398 31.5299916,21.461285 C31.842527,20.6402752 31.9999764,19.8332203 31.9999764,19.0587266 C32.0022673,18.2377168 31.8378969,17.4399651 31.5161011,16.6887295 Z M22.0011337,29.0434151 C22.0011337,29.0434151 13.7594587,23.7382498 13.7594587,19.0587266 C13.7594587,16.6887295 15.7110688,14.7676131 18.1187491,14.7676131 C19.8110706,14.7676131 21.2788296,15.7165423 22.0011337,17.1027231 C22.7234378,15.7165423 24.1911967,14.7676131 25.8835182,14.7676131 C28.2911985,14.7676131 30.2428086,16.6887295 30.2428086,19.0587266 C30.2428086,23.7382498 22.0011337,29.0434151 22.0011337,29.0434151 Z" id="形状" fill-rule="nonzero"></path>
            </g>
        </g>
    </g>
</svg>