<?xml version="1.0" encoding="UTF-8"?>
<svg width="44px" height="44px" viewBox="0 0 44 44" version="1.1" xmlns="http://www.w3.org/2000/svg" xmlns:xlink="http://www.w3.org/1999/xlink">
    <title>编组 2@2x</title>
    <g id="小组管理" stroke="none" stroke-width="1" fill="none" fill-rule="evenodd">
        <g id="书籍管理/简介操作" transform="translate(-8, -44)">
            <g id="编组-2" transform="translate(8, 44)">
                <rect id="矩形" fill-opacity="0" fill="#D8D8D8" x="0" y="0" width="44" height="44"></rect>
                <g id="编组" transform="translate(15, 13)" fill="#FFFFFF" fill-rule="nonzero">
                    <path d="M12.9545455,18 L2.04545455,18 C0.915781194,18 0,17.0965387 0,15.9820628 L0,2.01793722 C0,0.903461267 0.915781194,0 2.04545455,0 L10.9090909,0 L10.9090909,3.20179372 C10.9090909,3.57328571 11.2143513,3.87443946 11.5909091,3.87443946 L15,3.87443946 L15,15.9820628 C15,17.0965387 14.0842188,18 12.9545455,18 Z M2.04545455,1.34529148 C1.66889676,1.34529148 1.36363636,1.64644524 1.36363636,2.01793722 L1.36363636,15.9820628 C1.36363636,16.3535548 1.66889676,16.6547085 2.04545455,16.6547085 L12.9545455,16.6547085 C13.3311032,16.6547085 13.6363636,16.3535548 13.6363636,15.9820628 L13.6363636,5.21973094 L11.5909091,5.21973094 C10.4612357,5.21973094 9.54545455,4.31626967 9.54545455,3.20179372 L9.54545455,1.34529148 L2.04545455,1.34529148 Z" id="形状"></path>
                    <path d="M9.96545455,0.98206278 L10.9063636,0.0107623318 L14.9972727,3.8690583 L14.0563636,4.84170404 L9.96545455,0.98206278 Z M8.18181818,7.23766816 L4.09090909,7.23766816 C3.71435131,7.23766816 3.40909091,6.93651441 3.40909091,6.56502242 C3.40909091,6.19353044 3.71435131,5.89237668 4.09090909,5.89237668 L8.18181818,5.89237668 C8.55837597,5.89237668 8.86363636,6.19353044 8.86363636,6.56502242 C8.86363636,6.93651441 8.55837597,7.23766816 8.18181818,7.23766816 Z M11.5909091,12.6188341 L4.09090909,12.6188341 C3.71435131,12.6188341 3.40909091,12.3176803 3.40909091,11.9461883 C3.40909091,11.5746964 3.71435131,11.2735426 4.09090909,11.2735426 L11.5909091,11.2735426 C11.9674669,11.2735426 12.2727273,11.5746964 12.2727273,11.9461883 C12.2727273,12.3176803 11.9674669,12.6188341 11.5909091,12.6188341 Z" id="形状"></path>
                </g>
            </g>
        </g>
    </g>
</svg>